HIERARCHY
ROOT root
{
	OFFSET	0	13.1	24.9
	CHANNELS 6  Xposition Yposition Zposition Xrotation Yrotation Zrotation
	JOINT spine_1
	{
		OFFSET	0	9.99999	0
		CHANNELS 3  Xrotation Yrotation Zrotation
		JOINT spine_2
		{
			OFFSET	0	112	-10
			CHANNELS 3  Xrotation Yrotation Zrotation
			JOINT spine_3
			{
				OFFSET	0	206.5	19.3
				CHANNELS 3  Xrotation Yrotation Zrotation
				JOINT spine_4
				{
					OFFSET	0	110.4	14.6
					CHANNELS 3  Xrotation Yrotation Zrotation
					JOINT neck_1
					{
						OFFSET	0	71.8	-50.3
						CHANNELS 3  Xrotation Yrotation Zrotation
						JOINT neck_2
						{
							OFFSET	0	86.2	-25.8
							CHANNELS 3  Xrotation Yrotation Zrotation
							JOINT head_ee
							{
								OFFSET	0	179.8	-8.7
								CHANNELS 3  Xrotation Yrotation Zrotation
								End Site
								{
									OFFSET	1	0	0
								}
							}
						}
					}
					JOINT left_clavicle
					{
						OFFSET	-43.2	22.4	-70.8
						CHANNELS 3  Xrotation Yrotation Zrotation
						JOINT left_shoulder
						{
							OFFSET	-93.9	-5.79999	48.7
							CHANNELS 3  Xrotation Yrotation Zrotation
							JOINT left_elbow
							{
								OFFSET	-291.4	-30.8	15.2
								CHANNELS 3  Xrotation Yrotation Zrotation
								JOINT left_lowarm_twist
								{
									OFFSET	-110.7	-3.89999	13.6
									CHANNELS 3  Xrotation Yrotation Zrotation
									JOINT left_hand
									{
										OFFSET	-110.7	-3.89999	13.6
										CHANNELS 3  Xrotation Yrotation Zrotation
										JOINT left_ee
										{
											OFFSET	-80.8	-5.10001	12.1
											CHANNELS 3  Xrotation Yrotation Zrotation
											End Site
											{
												OFFSET	1	0	0
											}
										}
									}
								}
							}
						}
					}
					JOINT right_clavicle
					{
						OFFSET	43.2	22.4	-70.8
						CHANNELS 3  Xrotation Yrotation Zrotation
						JOINT right_shoulder
						{
							OFFSET	93.9	-5.79999	48.7
							CHANNELS 3  Xrotation Yrotation Zrotation
							JOINT right_elbow
							{
								OFFSET	291.4	-30.8	15.2
								CHANNELS 3  Xrotation Yrotation Zrotation
								JOINT right_lowarm_twist
								{
									OFFSET	110.7	-3.89999	13.6
									CHANNELS 3  Xrotation Yrotation Zrotation
									JOINT right_hand
									{
										OFFSET	110.7	-3.89999	13.6
										CHANNELS 3  Xrotation Yrotation Zrotation
										JOINT right_ee
										{
											OFFSET	80.8	-5.10001	12.1
											CHANNELS 3  Xrotation Yrotation Zrotation
											End Site
											{
												OFFSET	1	0	0
											}
										}
									}
								}
							}
						}
					}
				}
			}
		}
	}
	JOINT left_hip
	{
		OFFSET	-82.8	-127.5	0.300001
		CHANNELS 3  Xrotation Yrotation Zrotation
		JOINT left_knee
		{
			OFFSET	-28.2	-396.7	2.2
			CHANNELS 3  Xrotation Yrotation Zrotation
			JOINT left_ankle
			{
				OFFSET	-11.7	-411.3	35.4
				CHANNELS 3  Xrotation Yrotation Zrotation
				JOINT left_toes
				{
					OFFSET	0	-60	-88.6
					CHANNELS 3  Xrotation Yrotation Zrotation
					JOINT left_foot_ee
					{
						OFFSET	-22.5	-16.5	-42.2
						CHANNELS 3  Xrotation Yrotation Zrotation
						End Site
						{
							OFFSET	1	0	0
						}
					}
				}
			}
		}
	}
	JOINT right_hip
	{
		OFFSET	82.8	-127.5	0.300001
		CHANNELS 3  Xrotation Yrotation Zrotation
		JOINT right_knee
		{
			OFFSET	28.2	-396.7	2.2
			CHANNELS 3  Xrotation Yrotation Zrotation
			JOINT right_ankle
			{
				OFFSET	11.7	-411.3	35.4
				CHANNELS 3  Xrotation Yrotation Zrotation
				JOINT right_toes
				{
					OFFSET	0	-60	-88.6
					CHANNELS 3  Xrotation Yrotation Zrotation
					JOINT right_foot_ee
					{
						OFFSET	22.5	-16.5	-42.2
						CHANNELS 3  Xrotation Yrotation Zrotation
						End Site
						{
							OFFSET	1	0	0
						}
					}
				}
			}
		}
	}
}
MOTION
Frames: 11
Frame Time: 0.02
2556.32398159 764.544 -1508.86142716 30.2505828716 75.9660793329 -29.0407820297 -2.4318 -0.129286 -0.659953 -2.43156 -0.0870309 -0.666842 -2.43024 0.0834399 -0.667301 -2.43087 -0.0229926 -0.672104 -6.2828 4.80414 1.22769 -6.27592 7.99344 2.15624 -0.0 0.0 -0.0 2.77137 9.44043 5.93364 -10.5168 -13.3681 73.8163 0.17955 -5.08286 0.00796947 -49.9406 -4.06483 4.67979 0.645841 3.66462 5.80986 -0.0 0.0 -0.0 3.4725 14.1188 -5.67216 13.9235 28.6574 -70.8093 1.91095 43.4249 -0.760998 18.5052 -0.276712 2.33742 -0.969704 -12.2253 1.09143 0.0 0.0 0.0 5.83816 19.6198 -8.98134 -35.0092 -0.180152 5.28711 36.1763 19.2348 -4.64432 -17.7627 0.0 0.0 -0.0 0.0 -0.0 6.69861 13.8346 -7.11512 -4.31139 -0.153348 -0.643743 16.2638 19.0926 2.522 -26.1469 0.0 0.0 0.0 0.0 0.0 
2555.6121225 764.544 -1503.47921146 33.0007767952 77.0382412144 -31.8689426165 -2.4318 -0.129286 -0.659953 -2.43156 -0.0870309 -0.666842 -2.43024 0.0834399 -0.667301 -2.43087 -0.0229926 -0.672104 -6.2828 4.80414 1.22769 -6.27592 7.99344 2.15624 -0.0 0.0 -0.0 2.77137 9.44043 5.93364 -10.5168 -13.3681 73.8163 0.17955 -5.08286 0.00796947 -49.9406 -4.06483 4.67979 0.645841 3.66462 5.80986 -0.0 0.0 -0.0 3.4725 14.1188 -5.67216 13.9235 28.6574 -70.8093 1.91095 43.4249 -0.760998 18.5052 -0.276712 2.33742 -0.969704 -12.2253 1.09143 0.0 0.0 0.0 5.83816 19.6198 -8.98134 -35.0092 -0.180152 5.28711 36.1763 19.2348 -4.64432 -17.7627 0.0 0.0 -0.0 0.0 -0.0 6.69861 13.8346 -7.11512 -4.31139 -0.153348 -0.643743 16.2638 19.0926 2.522 -26.1469 0.0 0.0 0.0 0.0 0.0 
2542.7558438 764.61 -1491.61708171 38.8471800528 78.2543330799 -37.9243335831 -2.56585 -0.19418 -0.615198 -2.56566 -0.154641 -0.626307 -2.56366 0.00930706 -0.645048 -2.56423 -0.0926809 -0.638423 -5.46184 4.85244 1.30196 -5.44966 7.97445 2.19189 -0.0 0.0 -0.0 2.7995 10.1374 6.01988 -12.2608 -13.2149 74.2995 0.202074 -5.71649 0.010089 -51.0894 -4.19999 4.73866 1.1183 6.24997 9.96545 -0.0 0.0 -0.0 3.66014 12.8652 -6.1726 14.8553 28.4503 -69.9671 2.18816 47.3007 -0.958367 18.705 -0.275553 2.36292 -0.801048 -8.02972 1.84723 0.0 0.0 0.0 6.89908 18.1248 -8.46931 -29.2434 0.0723015 4.43876 36.8993 19.9813 -4.73148 -17.6177 0.0 0.0 -0.0 0.0 -0.0 6.73413 13.7776 -7.16184 -6.92083 -0.222464 -1.0382 16.5256 16.3743 2.50311 -25.3504 0.0 0.0 0.0 0.0 0.0 
2522.5706881 757.93 -1486.99295754 49.0983844241 81.1422515465 -47.8698913544 -2.1376 -0.231588 -0.66816 -2.13737 -0.188603 -0.681541 -2.1348 -0.0148263 -0.706999 -2.13547 -0.126295 -0.695786 -4.84425 4.84833 2.91394 -4.81693 6.70966 3.79906 -0.0 0.0 -0.0 2.1643 10.913 4.97583 -14.9314 -13.2384 74.3645 0.225261 -6.36732 0.0125296 -53.8899 -4.53414 4.87072 2.06355 11.6643 18.2391 -0.0 0.0 -0.0 3.19411 9.41634 -5.47835 14.3167 27.9752 -70.4052 2.98984 55.9621 -1.58872 19.9471 -0.266358 2.52129 -0.330084 -2.37486 1.19115 0.0 0.0 0.0 6.30778 16.3936 -7.8305 -19.5252 0.300986 2.9667 36.0585 23.1329 -4.72155 -16.514 0.0 0.0 -0.0 0.0 -0.0 7.54503 14.6263 -8.57737 -9.47436 -0.272636 -1.4268 20.8852 8.67535 2.94972 -21.5416 0.0 0.0 0.0 0.0 0.0 
2438.40784611 761.788 -1510.02852028 19.0998347312 76.277574219 -14.5268009597 -1.71734 -0.296503 -1.86328 -1.71543 -0.177358 -1.87837 -1.70769 0.277196 -1.86625 -1.71255 -0.0209681 -1.8866 -4.06527 1.83213 4.87304 -3.9983 -0.381037 5.30605 -0.0 0.0 -0.0 4.36158 16.8769 8.78378 -7.94598 -13.9366 69.9927 0.492748 -13.7174 0.0592693 -56.4425 -4.84393 4.97672 3.10377 20.9766 27.9829 -0.0 0.0 -0.0 0.516835 9.5118 0.0592646 5.31421 20.1205 -72.1332 2.05776 45.5437 -0.863889 17.4202 -0.281451 2.19893 0.85674 0.813956 -5.39779 0.0 0.0 0.0 1.77339 15.3808 -6.64306 -8.37413 0.253143 1.2591 34.9365 18.5909 -4.50715 -18.6198 0.0 0.0 -0.0 0.0 -0.0 8.10588 17.052 -11.3436 -15.4101 -0.32206 -2.33581 26.0782 7.83036 3.56578 -17.4655 0.0 0.0 0.0 0.0 0.0 
2438.23280797 761.788 -1508.23354229 19.4875224236 76.5452624522 -14.9256522152 -1.71734 -0.296503 -1.86328 -1.71543 -0.177358 -1.87837 -1.70769 0.277196 -1.86625 -1.71255 -0.0209681 -1.8866 -4.06527 1.83213 4.87304 -3.9983 -0.381037 5.30605 -0.0 0.0 -0.0 4.36158 16.8769 8.78378 -7.94598 -13.9366 69.9927 0.492748 -13.7174 0.0592693 -56.4425 -4.84393 4.97672 3.10377 20.9766 27.9829 -0.0 0.0 -0.0 0.516835 9.5118 0.0592646 5.31421 20.1205 -72.1332 2.05776 45.5437 -0.863889 17.4202 -0.281451 2.19893 0.85674 0.813956 -5.39779 0.0 0.0 0.0 1.77339 15.3808 -6.64306 -8.37413 0.253143 1.2591 34.9365 18.5909 -4.50715 -18.6198 0.0 0.0 -0.0 0.0 -0.0 8.10588 17.052 -11.3436 -15.4101 -0.32206 -2.33581 26.0782 7.83036 3.56578 -17.4655 0.0 0.0 0.0 0.0 0.0 
2437.99220753 761.788 -1505.59990474 20.0849888702 76.9366029121 -15.5394776373 -1.71734 -0.296503 -1.86328 -1.71543 -0.177358 -1.87837 -1.70769 0.277196 -1.86625 -1.71255 -0.0209681 -1.8866 -4.06527 1.83213 4.87304 -3.9983 -0.381037 5.30605 -0.0 0.0 -0.0 4.36158 16.8769 8.78378 -7.94598 -13.9366 69.9927 0.492748 -13.7174 0.0592693 -56.4425 -4.84393 4.97672 3.10377 20.9766 27.9829 -0.0 0.0 -0.0 0.516835 9.5118 0.0592646 5.31421 20.1205 -72.1332 2.05776 45.5437 -0.863889 17.4202 -0.281451 2.19893 0.85674 0.813956 -5.39779 0.0 0.0 0.0 1.77339 15.3808 -6.64306 -8.37413 0.253143 1.2591 34.9365 18.5909 -4.50715 -18.6198 0.0 0.0 -0.0 0.0 -0.0 8.10588 17.052 -11.3436 -15.4101 -0.32206 -2.33581 26.0782 7.83036 3.56578 -17.4655 0.0 0.0 0.0 0.0 0.0 
2437.46482876 761.788 -1498.87065321 21.786475716 77.9281315976 -17.2826615523 -1.71734 -0.296503 -1.86328 -1.71543 -0.177358 -1.87837 -1.70769 0.277196 -1.86625 -1.71255 -0.0209681 -1.8866 -4.06527 1.83213 4.87304 -3.9983 -0.381037 5.30605 -0.0 0.0 -0.0 4.36158 16.8769 8.78378 -7.94598 -13.9366 69.9927 0.492748 -13.7174 0.0592693 -56.4425 -4.84393 4.97672 3.10377 20.9766 27.9829 -0.0 0.0 -0.0 0.516835 9.5118 0.0592646 5.31421 20.1205 -72.1332 2.05776 45.5437 -0.863889 17.4202 -0.281451 2.19893 0.85674 0.813956 -5.39779 0.0 0.0 0.0 1.77339 15.3808 -6.64306 -8.37413 0.253143 1.2591 34.9365 18.5909 -4.50715 -18.6198 0.0 0.0 -0.0 0.0 -0.0 8.10588 17.052 -11.3436 -15.4101 -0.32206 -2.33581 26.0782 7.83036 3.56578 -17.4655 0.0 0.0 0.0 0.0 0.0 
2437.24577598 761.788 -1495.46687336 22.7575922381 78.4245163611 -18.2748187401 -1.71734 -0.296503 -1.86328 -1.71543 -0.177358 -1.87837 -1.70769 0.277196 -1.86625 -1.71255 -0.0209681 -1.8866 -4.06527 1.83213 4.87304 -3.9983 -0.381037 5.30605 -0.0 0.0 -0.0 4.36158 16.8769 8.78378 -7.94598 -13.9366 69.9927 0.492748 -13.7174 0.0592693 -56.4425 -4.84393 4.97672 3.10377 20.9766 27.9829 -0.0 0.0 -0.0 0.516835 9.5118 0.0592646 5.31421 20.1205 -72.1332 2.05776 45.5437 -0.863889 17.4202 -0.281451 2.19893 0.85674 0.813956 -5.39779 0.0 0.0 0.0 1.77339 15.3808 -6.64306 -8.37413 0.253143 1.2591 34.9365 18.5909 -4.50715 -18.6198 0.0 0.0 -0.0 0.0 -0.0 8.10588 17.052 -11.3436 -15.4101 -0.32206 -2.33581 26.0782 7.83036 3.56578 -17.4655 0.0 0.0 0.0 0.0 0.0 
2437.32473467 761.788 -1496.75220438 22.3812498333 78.2375138949 -17.8905346799 -1.71734 -0.296503 -1.86328 -1.71543 -0.177358 -1.87837 -1.70769 0.277196 -1.86625 -1.71255 -0.0209681 -1.8866 -4.06527 1.83213 4.87304 -3.9983 -0.381037 5.30605 -0.0 0.0 -0.0 4.36158 16.8769 8.78378 -7.94598 -13.9366 69.9927 0.492748 -13.7174 0.0592693 -56.4425 -4.84393 4.97672 3.10377 20.9766 27.9829 -0.0 0.0 -0.0 0.516835 9.5118 0.0592646 5.31421 20.1205 -72.1332 2.05776 45.5437 -0.863889 17.4202 -0.281451 2.19893 0.85674 0.813956 -5.39779 0.0 0.0 0.0 1.77339 15.3808 -6.64306 -8.37413 0.253143 1.2591 34.9365 18.5909 -4.50715 -18.6198 0.0 0.0 -0.0 0.0 -0.0 8.10588 17.052 -11.3436 -15.4101 -0.32206 -2.33581 26.0782 7.83036 3.56578 -17.4655 0.0 0.0 0.0 0.0 0.0 
2437.20105685 761.788 -1494.70380351 22.9868219772 78.5352706449 -18.5087612049 -1.71734 -0.296503 -1.86328 -1.71543 -0.177358 -1.87837 -1.70769 0.277196 -1.86625 -1.71255 -0.0209681 -1.8866 -4.06527 1.83213 4.87304 -3.9983 -0.381037 5.30605 -0.0 0.0 -0.0 4.36158 16.8769 8.78378 -7.94598 -13.9366 69.9927 0.492748 -13.7174 0.0592693 -56.4425 -4.84393 4.97672 3.10377 20.9766 27.9829 -0.0 0.0 -0.0 0.516835 9.5118 0.0592646 5.31421 20.1205 -72.1332 2.05776 45.5437 -0.863889 17.4202 -0.281451 2.19893 0.85674 0.813956 -5.39779 0.0 0.0 0.0 1.77339 15.3808 -6.64306 -8.37413 0.253143 1.2591 34.9365 18.5909 -4.50715 -18.6198 0.0 0.0 -0.0 0.0 -0.0 8.10588 17.052 -11.3436 -15.4101 -0.32206 -2.33581 26.0782 7.83036 3.56578 -17.4655 0.0 0.0 0.0 0.0 0.0 
